<?xml version="1.0" encoding="UTF-8" standalone="no"?>
<svg
   xmlns:dc="http://purl.org/dc/elements/1.1/"
   xmlns:cc="http://creativecommons.org/ns#"
   xmlns:rdf="http://www.w3.org/1999/02/22-rdf-syntax-ns#"
   xmlns:svg="http://www.w3.org/2000/svg"
   xmlns="http://www.w3.org/2000/svg"
   xmlns:sodipodi="http://sodipodi.sourceforge.net/DTD/sodipodi-0.dtd"
   xmlns:inkscape="http://www.inkscape.org/namespaces/inkscape"
   inkscape:export-ydpi="260.00488"
   inkscape:export-xdpi="260.00488"
   inkscape:export-filename="/Users/benjamin/Pictures/antBig.png"
   sodipodi:docname="info.svg"
   inkscape:version="1.0 (4035a4f, 2020-05-01)"
   id="svg8"
   version="1.1"
   viewBox="0 0 9.3662512 9.3662512"
   height="35.400005"
   width="35.400005">
  <defs
     id="defs2">
    <inkscape:path-effect
       background_color="#ffffffff"
       background="false"
       hide_mask="false"
       invert="false"
       uri="#mask-powermask-path-effect3052"
       lpeversion="0"
       is_visible="true"
       id="path-effect3052"
       effect="powermask" />
    <mask
       id="mask3048"
       maskUnits="userSpaceOnUse">
      <path
         id="path3050"
         d="m 65.109375,103.74805 c -4.721754,-0.31843 -9.912317,2.03079 -13.390625,7.83203 a 1.5370451,1.5370451 0 0 0 0.529297,2.10937 1.5370451,1.5370451 0 0 0 2.107422,-0.52734 c 2.991895,-4.98998 6.941175,-6.59082 10.546875,-6.34766 3.605698,0.24317 6.873215,2.47576 8.232422,5.53516 0.484862,1.09136 0.439044,2.35808 -0.08593,3.83398 -0.524982,1.4759 -1.539892,3.08215 -2.78125,4.5586 -2.482714,2.95289 -6.091492,5.38177 -7.376953,5.73633 a 1.5371987,1.5371987 0 0 0 -1.126953,1.44726 c -0.222305,10.1783 -0.40625,13.60352 -0.40625,13.60352 a 1.5370451,1.5370451 0 0 0 1.453125,1.61718 1.5370451,1.5370451 0 0 0 1.617187,-1.45312 c 0,0 0.17872,-4.05405 0.382813,-12.84766 2.505104,-1.04849 5.341557,-3.19075 7.808595,-6.125 1.409352,-1.67626 2.624937,-3.53641 3.32617,-5.50781 0.701234,-1.9714 0.877706,-4.13133 -0.0019,-6.11133 -1.863337,-4.19407 -6.112258,-7.03508 -10.834012,-7.35351 z"
         style="color:#000000;font-style:normal;font-variant:normal;font-weight:normal;font-stretch:normal;font-size:medium;line-height:normal;font-family:sans-serif;font-variant-ligatures:normal;font-variant-position:normal;font-variant-caps:normal;font-variant-numeric:normal;font-variant-alternates:normal;font-variant-east-asian:normal;font-feature-settings:normal;font-variation-settings:normal;text-indent:0;text-align:start;text-decoration:none;text-decoration-line:none;text-decoration-style:solid;text-decoration-color:#000000;letter-spacing:normal;word-spacing:normal;text-transform:none;writing-mode:lr-tb;direction:ltr;text-orientation:mixed;dominant-baseline:auto;baseline-shift:baseline;text-anchor:start;white-space:normal;shape-padding:0;shape-margin:0;inline-size:0;clip-rule:nonzero;display:inline;overflow:visible;visibility:visible;opacity:1;isolation:auto;mix-blend-mode:normal;color-interpolation:sRGB;color-interpolation-filters:linearRGB;solid-color:#000000;solid-opacity:1;vector-effect:none;fill:none;fill-opacity:0.996078;fill-rule:nonzero;stroke:#0a60ff;stroke-width:0.520744;stroke-linecap:round;stroke-linejoin:round;stroke-miterlimit:4;stroke-dasharray:none;stroke-dashoffset:0;stroke-opacity:1;color-rendering:auto;image-rendering:auto;shape-rendering:auto;text-rendering:auto;enable-background:accumulate;stop-color:#000000;stop-opacity:1" />
    </mask>
  </defs>
  <sodipodi:namedview
     inkscape:pagecheckerboard="true"
     lock-margins="true"
     inkscape:window-maximized="0"
     inkscape:window-y="23"
     inkscape:window-x="0"
     inkscape:window-height="806"
     inkscape:window-width="1440"
     fit-margin-bottom="0.2"
     fit-margin-right="0.2"
     fit-margin-left="0.2"
     fit-margin-top="0.2"
     showgrid="false"
     inkscape:document-rotation="0"
     inkscape:current-layer="g1914"
     inkscape:document-units="mm"
     inkscape:cy="20.385213"
     inkscape:cx="18.134714"
     inkscape:zoom="17.485035"
     inkscape:pageshadow="2"
     inkscape:pageopacity="0.0"
     borderopacity="1.0"
     bordercolor="#666666"
     pagecolor="#ffffff"
     id="base"
     units="px" />
  <metadata
     id="metadata5">
    <rdf:RDF>
      <cc:Work
         rdf:about="">
        <dc:format>image/svg+xml</dc:format>
        <dc:type
           rdf:resource="http://purl.org/dc/dcmitype/StillImage" />
        <dc:title></dc:title>
      </cc:Work>
    </rdf:RDF>
  </metadata>
  <g
     transform="translate(-40.124276,-102.11236)"
     id="layer1"
     inkscape:groupmode="layer"
     inkscape:label="Layer 1">
    <g
       id="g1914"
       transform="matrix(0.19203305,0,0,0.19203305,32.513493,82.597818)">
      <circle
         r="23.416241"
         style="fill:none;stroke:#ffffff;stroke-width:1.39056;stroke-miterlimit:4;stroke-dasharray:none;stroke-opacity:1"
         id="path833"
         cx="64.019753"
         cy="126.00784" />
      <path
         id="path857"
         d="m 64.934755,108.39155 c -3.968524,-0.25425 -8.331071,1.62146 -11.254507,6.2534 a 1.2918505,1.2272369 0 0 0 0.444861,1.6842 1.2918505,1.2272369 0 0 0 1.771239,-0.42105 c 2.514618,-3.9842 5.833896,-5.26237 8.864402,-5.06822 3.030505,0.19415 5.776777,1.97675 6.919158,4.41949 0.407516,0.87138 0.369007,1.88278 -0.07222,3.0612 -0.441235,1.17842 -1.294243,2.46091 -2.337575,3.63976 -2.086663,2.35771 -5.119757,4.29701 -6.200157,4.58011 a 1.2919796,1.2273595 0 0 0 -0.947178,1.15555 c -0.186842,8.12675 -0.341443,10.86158 -0.341443,10.86158 a 1.2918505,1.2272369 0 0 0 1.221317,1.29122 1.2918505,1.2272369 0 0 0 1.359208,-1.16023 c 0,0 0.15021,-3.23691 0.321746,-10.25807 2.105481,-0.83716 4.489453,-2.54762 6.562941,-4.89044 1.184528,-1.33839 2.206198,-2.82361 2.795568,-4.39765 0.589371,-1.57404 0.737692,-3.29861 -0.0016,-4.87952 -1.566091,-3.34872 -5.137209,-5.61709 -9.105733,-5.87133 z"
         style="color:#000000;font-style:normal;font-variant:normal;font-weight:normal;font-stretch:normal;font-size:medium;line-height:normal;font-family:sans-serif;font-variant-ligatures:normal;font-variant-position:normal;font-variant-caps:normal;font-variant-numeric:normal;font-variant-alternates:normal;font-variant-east-asian:normal;font-feature-settings:normal;font-variation-settings:normal;text-indent:0;text-align:start;text-decoration:none;text-decoration-line:none;text-decoration-style:solid;text-decoration-color:#000000;letter-spacing:normal;word-spacing:normal;text-transform:none;writing-mode:lr-tb;direction:ltr;text-orientation:mixed;dominant-baseline:auto;baseline-shift:baseline;text-anchor:start;white-space:normal;shape-padding:0;shape-margin:0;inline-size:0;clip-rule:nonzero;display:inline;overflow:visible;visibility:visible;opacity:1;isolation:auto;mix-blend-mode:normal;color-interpolation:sRGB;color-interpolation-filters:linearRGB;solid-color:#000000;solid-opacity:1;vector-effect:none;fill:#ffffff;fill-opacity:0.996078;fill-rule:nonzero;stroke:#ffffff;stroke-width:2.60371848;stroke-linecap:round;stroke-linejoin:round;stroke-miterlimit:4;stroke-dasharray:none;stroke-dashoffset:0;stroke-opacity:1;color-rendering:auto;image-rendering:auto;shape-rendering:auto;text-rendering:auto;enable-background:accumulate;stop-color:#000000;stop-opacity:1" />
      <ellipse
         ry="1.3973604"
         rx="1.3252822"
         cy="143.74094"
         cx="63.081768"
         id="path2970"
         style="opacity:1;fill:#ffffff;fill-opacity:1;stroke:#ffffff;stroke-width:2.60372;stroke-linecap:round;stroke-linejoin:round;stroke-miterlimit:4;stroke-dasharray:none;stroke-opacity:1" />
    </g>
  </g>
</svg>
