<?xml version="1.0" encoding="UTF-8" standalone="no"?>
<svg
   xmlns:dc="http://purl.org/dc/elements/1.1/"
   xmlns:cc="http://creativecommons.org/ns#"
   xmlns:rdf="http://www.w3.org/1999/02/22-rdf-syntax-ns#"
   xmlns:svg="http://www.w3.org/2000/svg"
   xmlns="http://www.w3.org/2000/svg"
   xmlns:sodipodi="http://sodipodi.sourceforge.net/DTD/sodipodi-0.dtd"
   xmlns:inkscape="http://www.inkscape.org/namespaces/inkscape"
   width="210mm"
   height="210mm"
   viewBox="0 0 210 210"
   version="1.1"
   id="svg8"
   inkscape:version="1.0 (4035a4f, 2020-05-01)"
   sodipodi:docname="icon2.svg">
  <defs
     id="defs2" />
  <sodipodi:namedview
     id="base"
     pagecolor="#ffffff"
     bordercolor="#666666"
     borderopacity="1.0"
     inkscape:pageopacity="0.0"
     inkscape:pageshadow="2"
     inkscape:zoom="0.79247884"
     inkscape:cx="383.98537"
     inkscape:cy="236.36753"
     inkscape:document-units="mm"
     inkscape:current-layer="layer1"
     inkscape:document-rotation="0"
     showgrid="false"
     inkscape:snap-object-midpoints="false"
     inkscape:snap-bbox="false"
     inkscape:bbox-nodes="true"
     inkscape:snap-page="false"
     inkscape:object-nodes="false"
     inkscape:snap-others="true"
     inkscape:window-width="1204"
     inkscape:window-height="808"
     inkscape:window-x="236"
     inkscape:window-y="23"
     inkscape:window-maximized="0" />
  <metadata
     id="metadata5">
    <rdf:RDF>
      <cc:Work
         rdf:about="">
        <dc:format>image/svg+xml</dc:format>
        <dc:type
           rdf:resource="http://purl.org/dc/dcmitype/StillImage" />
        <dc:title></dc:title>
      </cc:Work>
    </rdf:RDF>
  </metadata>
  <g
     inkscape:label="Layer 1"
     inkscape:groupmode="layer"
     id="layer1">
    <rect
       style="fill:#ccffaa;stroke:none;stroke-width:2;stroke-linecap:round"
       id="rect16"
       width="209.99998"
       height="210"
       x="0.099467345"
       y="-0.099467345" />
    <path
       sodipodi:nodetypes="czzc"
       id="path67-3"
       d="m 151.42814,100.07796 c 0,0 -168.280124,-3.364744 -175.267643,-27.13219 C -30.827023,49.178325 -19.1008,46.925413 3.2926856,44.566145 25.686157,42.206878 151.42814,100.07796 151.42814,100.07796 Z"
       style="fill:#cccccc;stroke:#000000;stroke-width:0.672885px;stroke-linecap:butt;stroke-linejoin:miter;stroke-opacity:1" />
    <ellipse
       style="fill:#a05a2c;stroke:none;stroke-width:2;stroke-linecap:round"
       id="path18"
       ry="72.775734"
       rx="208.40323"
       cy="216.57812"
       cx="112.83915" />
    <path
       sodipodi:nodetypes="szscs"
       d="m 184.74857,106.32556 c -3.91248,4.30777 -7.54475,10.96087 -10.4999,10.96044 -2.95515,-4.3e-4 -7.04451,-7.25858 -10.4999,-10.96044 -3.44264,-3.6882 -13.19009,-10.960436 10.4999,-10.960429 27.23278,8e-6 14.94997,6.060749 10.4999,10.960429 z"
       style="fill:#000000;stroke:none;stroke-width:1.34592;stroke-linecap:round"
       id="path20" />
    <path
       sodipodi:nodetypes="csssssssssc"
       d="m 168.08311,109.48204 c 1.81113,9.64017 -23.63012,7.87953 -55.34123,13.83716 -7.92778,1.48941 -14.540707,2.97774 -20.138296,4.28149 -5.597589,1.30374 -10.179839,2.42289 -14.046256,3.17393 -3.866418,0.75104 -7.017004,1.13397 -9.751267,0.96527 -2.734262,-0.1687 -5.052202,-0.88904 -7.253326,-2.34452 -1.466081,-0.96944 -1.316499,-2.74313 0.228028,-4.95144 1.544527,-2.20832 4.484,-4.85126 8.597706,-7.55919 4.113705,-2.70794 9.401642,-5.48087 15.643097,-7.94917 6.241455,-2.4683 13.436428,-4.63196 21.364204,-6.12137 31.71109,-5.957617 58.88622,-2.972333 60.69734,6.66784"
       style="fill:#000000;stroke:none;stroke-width:4.04139;stroke-linecap:round"
       id="path20-2" />
    <path
       style="fill:none;stroke:#000000;stroke-width:0.672885px;stroke-linecap:butt;stroke-linejoin:miter;stroke-opacity:1"
       d="m 167.44736,97.601054 3.71466,-30.336534 11.76318,9.286692"
       id="path37" />
    <path
       style="fill:none;stroke:#000000;stroke-width:0.672885px;stroke-linecap:butt;stroke-linejoin:miter;stroke-opacity:1"
       d="m 179.82963,97.601054 9.9058,-29.717419 8.04847,9.286692"
       id="path41" />
    <path
       style="fill:none;stroke:#000000;stroke-width:0.672885px;stroke-linecap:butt;stroke-linejoin:miter;stroke-opacity:1"
       d="m 135.3257,147.35118 v -15.47784 l 5.31255,-14.13971 9.28669,7.42935 1.23823,21.04987"
       id="path43"
       sodipodi:nodetypes="ccccc" />
    <path
       style="fill:none;stroke:#000000;stroke-width:0.672885px;stroke-linecap:butt;stroke-linejoin:miter;stroke-opacity:1"
       d="m 108.56373,147.95697 0.61911,-13.00138 1.64458,-15.60428 7.25621,13.01468 0.79228,14.84542"
       id="path45"
       sodipodi:nodetypes="ccccc" />
    <path
       style="fill:none;stroke:#000000;stroke-width:0.672885px;stroke-linecap:butt;stroke-linejoin:miter;stroke-opacity:1"
       d="m 89.184762,147.11151 -0.619115,-12.38226 1.271647,-12.2691 6.810234,11.14406 v 13.6205"
       id="path47"
       sodipodi:nodetypes="ccccc" />
    <path
       style="fill:#cccccc;stroke:#000000;stroke-width:0.672885px;stroke-linecap:butt;stroke-linejoin:miter;stroke-opacity:1"
       d="m 141.90341,104.7203 c 0,0 -168.280136,-3.36474 -175.267656,-27.132188 -6.98752,-23.767446 4.738703,-26.020357 27.1321896,-28.379625 C 16.161422,46.849219 141.90341,104.7203 141.90341,104.7203 Z"
       id="path67"
       sodipodi:nodetypes="czzc" />
  </g>
</svg>
